<svg xmlns="http://www.w3.org/2000/svg" viewBox="0 0 512 512"><path d="M377 151h-60c-24.81 0-45 20.19-45 45 0 5.26.92 10.31 2.58 15h-36.15a44.88 44.88 0 0 0 2.57-15c0-24.81-20.19-45-45-45h-60C61.01 151 0 211.56 0 286v60c0 74.44 61.01 135 136 135h241c74.44 0 135-60.56 135-135v-60c0-74.44-60.56-135-135-135zm-91 240h-90c-8.28 0-15 6.72-15 15 0 8.28 6.72 15 15 15h60c8.27 0 15 6.73 15 15s-6.73 15-15 15H136c-58.45 0-106-47.1-106-105v-60c0-57.9 47.55-105 106-105h60c8.27 0 15 6.73 15 15s-6.73 15-15 15h-60c-8.28 0-15 6.72-15 15 0 8.28 6.72 15 15 15h150c8.27 0 15 6.73 15 15s-6.73 15-15 15h-90c-8.28 0-15 6.72-15 15 0 8.28 6.72 15 15 15h90c8.27 0 15 6.73 15 15s-6.73 15-15 15h-90c-8.28 0-15 6.72-15 15 0 8.28 6.72 15 15 15h90c8.27 0 15 6.73 15 15s-6.73 15-15 15zm196-45c0 57.9-47.1 105-105 105h-78.58a44.885 44.885 0 0 0-.6-31.59c19.1-5.2 33.18-22.69 33.18-43.41 0-11.52-4.35-22.03-11.49-30 7.14-7.97 11.49-18.48 11.49-30s-4.35-22.03-11.49-30c7.14-7.97 11.49-18.48 11.49-30 0-5.26-.92-10.31-2.58-15H362v15c0 28.05 10.92 54.42 30.75 74.25 5.85 5.85 15.362 5.857 21.22 0 5.86-5.86 5.86-15.36 0-21.22C399.8 294.87 392 276.03 392 256v-30c0-8.28-6.72-15-15-15h-60c-8.27 0-15-6.73-15-15s6.73-15 15-15h60c57.9 0 105 47.1 105 105v60zM256 31c-8.284 0-15 6.716-15 15v45c0 8.284 6.716 15 15 15s15-6.716 15-15V46c0-8.284-6.716-15-15-15zm131.606 34.393c-5.857-5.858-15.355-5.858-21.213 0l-30 30c-5.858 5.858-5.858 15.355 0 21.213 5.857 5.858 15.356 5.859 21.213 0l30-30c5.858-5.858 5.858-15.355 0-21.213zm-211 30l-30-30c-5.857-5.858-15.355-5.858-21.213 0-5.858 5.858-5.858 15.355 0 21.213l30 30c5.857 5.858 15.356 5.859 21.213 0 5.858-5.858 5.858-15.355 0-21.213z"/></svg>