<svg xmlns="http://www.w3.org/2000/svg" viewBox="0 0 512.001 512.001"><path d="M456.093 494.345h-4.461a26.36 26.36 0 0 0 1.518-8.828 26.338 26.338 0 0 0-6.592-17.481c.467-1.982.707-4.016.707-6.059 0-11.508-7.38-21.319-17.655-24.964V246.659a8.785 8.785 0 0 0 3.3-2.072l29.425-29.425a8.83 8.83 0 0 0 0-12.485L262.243 2.585a8.831 8.831 0 0 0-12.485 0L135.357 116.986v-13.998a8.827 8.827 0 0 0-8.828-8.828h-35.31a8.827 8.827 0 0 0-8.828 8.828v66.964l-32.726 32.726c-3.447 3.45-3.447 9.038 0 12.485l29.425 29.425a8.814 8.814 0 0 0 3.3 2.072v190.355c-10.275 3.645-17.655 13.457-17.655 24.964 0 2.043.239 4.078.707 6.059a26.34 26.34 0 0 0-6.592 17.481c0 3.094.538 6.064 1.518 8.828h-4.461a8.827 8.827 0 0 0-8.828 8.828 8.827 8.827 0 0 0 8.828 8.828h400.185a8.827 8.827 0 0 0 8.828-8.828 8.827 8.827 0 0 0-8.827-8.83zm-356.047-382.53h17.655v22.826l-17.655 17.655v-40.481zm-31.654 97.104l29.063-29.062.013-.013 35.297-35.297.013-.013L256.001 21.311 443.61 208.92l-16.942 16.941L262.242 61.435a8.805 8.805 0 0 0-6.243-2.585 8.805 8.805 0 0 0-6.243 2.585L85.334 225.861l-16.942-16.942zm75.79 285.426H85.334c-4.868 0-8.828-3.959-8.828-8.828 0-3.018 1.531-5.798 4.095-7.438a8.827 8.827 0 0 0 2.93-11.78 8.69 8.69 0 0 1-1.141-4.323c0-4.868 3.959-8.828 8.828-8.828 2.768 0 4.723 1.232 5.876 2.267a8.824 8.824 0 0 0 11.789 0c1.152-1.035 3.108-2.267 5.876-2.267s4.723 1.232 5.876 2.267a8.824 8.824 0 0 0 11.789 0c1.152-1.035 3.109-2.267 5.876-2.267 4.868 0 8.828 3.959 8.828 8.828a8.687 8.687 0 0 1-1.141 4.323 8.827 8.827 0 0 0 2.93 11.78c2.565 1.64 4.095 4.421 4.095 7.438-.003 4.868-3.962 8.828-8.83 8.828zm138.301 0h-17.655v-26.483a8.827 8.827 0 0 0-8.828-8.828 8.827 8.827 0 0 0-8.828 8.828v26.483h-17.655v-52.966h52.966v52.966zm65.444-26.308a26.341 26.341 0 0 0-6.592 17.481c0 3.094.538 6.064 1.518 8.828h-42.714v-61.793a8.827 8.827 0 0 0-8.828-8.828H220.69a8.827 8.827 0 0 0-8.828 8.828v61.793h-42.714a26.36 26.36 0 0 0 1.518-8.828 26.338 26.338 0 0 0-6.592-17.481c.467-1.982.707-4.016.707-6.059 0-14.602-11.881-26.483-26.483-26.483-4.118 0-8.139.961-11.77 2.771a26.366 26.366 0 0 0-11.77-2.771c-4.118 0-8.139.961-11.77 2.771-.956-.477-1.94-.89-2.943-1.248V236.117L256.001 80.162l155.954 155.956V437.02a26.3 26.3 0 0 0-2.943 1.247c-3.631-1.81-7.652-2.771-11.77-2.771s-8.139.961-11.77 2.771a26.366 26.366 0 0 0-11.77-2.771c-14.602 0-26.483 11.881-26.483 26.483 0 2.042.239 4.077.708 6.058zm78.74 26.308h-58.85c-4.868 0-8.828-3.959-8.828-8.828 0-3.018 1.531-5.798 4.096-7.438a8.827 8.827 0 0 0 2.93-11.78 8.69 8.69 0 0 1-1.141-4.323c0-4.868 3.959-8.828 8.828-8.828 2.768 0 4.723 1.232 5.876 2.267a8.824 8.824 0 0 0 11.789 0c1.152-1.035 3.108-2.267 5.876-2.267 2.768 0 4.723 1.232 5.876 2.267a8.824 8.824 0 0 0 11.789 0c1.152-1.035 3.108-2.267 5.876-2.267 4.868 0 8.828 3.959 8.828 8.828a8.687 8.687 0 0 1-1.141 4.323 8.826 8.826 0 0 0 2.93 11.78c2.565 1.64 4.095 4.421 4.095 7.438-.002 4.868-3.961 8.828-8.829 8.828z"/><path d="M256.001 205.976c14.602 0 26.483-11.881 26.483-26.483s-11.881-26.483-26.483-26.483-26.483 11.881-26.483 26.483c0 14.604 11.881 26.483 26.483 26.483zm0-35.31c4.868 0 8.828 3.959 8.828 8.828 0 4.868-3.959 8.828-8.828 8.828-4.868 0-8.828-3.959-8.828-8.828 0-4.867 3.959-8.828 8.828-8.828zm29.425 205.977h-2.943V338.39a8.827 8.827 0 0 0-8.828-8.828h-35.31a8.827 8.827 0 0 0-8.828 8.828v38.253h-2.943a8.827 8.827 0 0 0-8.828 8.828 8.827 8.827 0 0 0 8.828 8.828h58.851a8.827 8.827 0 0 0 8.828-8.828 8.827 8.827 0 0 0-8.827-8.828zm-20.598 0h-17.655v-29.425h17.655v29.425zm123.587 8.828a8.827 8.827 0 0 0-8.828-8.828h-2.943V338.39a8.827 8.827 0 0 0-8.828-8.828h-35.31a8.827 8.827 0 0 0-8.828 8.828v38.253h-2.943a8.827 8.827 0 0 0-8.828 8.828 8.827 8.827 0 0 0 8.828 8.828h58.851a8.828 8.828 0 0 0 8.829-8.828zm-29.426-8.828h-17.655v-29.425h17.655v29.425zm-166.547 0h-2.943V338.39a8.827 8.827 0 0 0-8.828-8.828h-35.31a8.827 8.827 0 0 0-8.828 8.828v38.253h-2.943a8.827 8.827 0 0 0-8.828 8.828 8.827 8.827 0 0 0 8.828 8.828h58.851a8.827 8.827 0 0 0 8.828-8.828 8.827 8.827 0 0 0-8.827-8.828zm-20.598 0h-17.655v-29.425h17.655v29.425zm113.582-94.161h-2.943v-38.253a8.827 8.827 0 0 0-8.828-8.828h-35.31a8.827 8.827 0 0 0-8.828 8.828v38.253h-2.943a8.827 8.827 0 0 0-8.828 8.828 8.827 8.827 0 0 0 8.828 8.828h58.851a8.827 8.827 0 0 0 8.828-8.828 8.827 8.827 0 0 0-8.827-8.828zm-20.598 0h-17.655v-29.425h17.655v29.425zm55.908 17.655h58.851a8.827 8.827 0 0 0 8.828-8.828 8.828 8.828 0 0 0-8.828-8.828h-2.943v-38.253a8.827 8.827 0 0 0-8.828-8.828h-35.31a8.827 8.827 0 0 0-8.828 8.828v38.253h-2.943a8.829 8.829 0 0 0 .001 17.656zm20.598-47.08h17.655v29.425h-17.655v-29.425zm-148.892 29.425h-2.943v-38.253a8.827 8.827 0 0 0-8.828-8.828h-35.31a8.827 8.827 0 0 0-8.828 8.828v38.253h-2.943a8.827 8.827 0 0 0-8.828 8.828 8.827 8.827 0 0 0 8.828 8.828h58.851a8.827 8.827 0 0 0 8.828-8.828 8.828 8.828 0 0 0-8.827-8.828zm-20.598 0h-17.655v-29.425h17.655v29.425z"/></svg>