<svg xmlns="http://www.w3.org/2000/svg" viewBox="0 0 512 512"><path d="M496.964 482.004h-44.993V267.453a44.969 44.969 0 0 0 49.162-13.129c16.135-18.831 14.071-47.206-4.906-63.467L285.282 10.905c-16.966-14.537-41.596-14.537-58.538-.021L15.75 190.879c-18.846 16.149-21.105 44.512-4.871 63.459 12.422 14.464 32.141 19.078 49.151 13.1v214.567H15.036c-8.283 0-14.998 6.715-14.998 14.998S6.753 512 15.036 512h481.928c8.283 0 14.998-6.715 14.998-14.998s-6.714-14.998-14.998-14.998zM54.813 236.416c-6.293 5.376-15.793 4.65-21.167-1.608-5.467-6.381-4.578-15.84 1.597-21.13L246.235 33.684c5.659-4.849 13.873-4.848 19.555.021l210.945 179.952c6.302 5.4 7.008 14.864 1.628 21.143-5.278 6.152-14.715 7.154-21.185 1.606-7.598-6.479-177.096-151.012-191.446-163.247a15 15 0 0 0-19.463 0L54.813 236.416zm156.194 245.588h-59.991V331.027h59.991v150.977zm210.969 0H241.002V316.029c0-8.283-6.715-14.998-14.998-14.998h-89.987c-8.283 0-14.998 6.715-14.998 14.998v165.975H90.025V245.809L256 104.28l165.975 141.529v236.195z"/><path d="M375.982 301.031h-89.987c-8.283 0-14.998 6.715-14.998 14.998v89.987c0 8.283 6.715 14.998 14.998 14.998h89.987c8.283 0 14.998-6.715 14.998-14.998v-89.987c0-8.283-6.714-14.998-14.998-14.998zm-14.997 89.987h-59.991v-59.991h59.991v59.991zM256 150.054c-24.809 0-44.993 20.184-44.993 44.993S231.191 240.04 256 240.04s44.993-20.184 44.993-44.993S280.81 150.054 256 150.054zm0 59.991c-8.27 0-14.998-6.728-14.998-14.998s6.728-14.998 14.998-14.998 14.998 6.728 14.998 14.998-6.728 14.998-14.998 14.998z"/></svg>