<svg xmlns="http://www.w3.org/2000/svg" width="32.75" height="32.75"><path d="M29.375 1.25h-1.123c.029-.093.059-.186.059-.289a.963.963 0 0 0-1.924 0c0 .103.028.196.059.289h-3.68c.029-.093.059-.186.059-.289a.962.962 0 1 0-1.925 0 .93.93 0 0 0 .059.289h-3.682c.029-.093.059-.186.059-.289a.961.961 0 0 0-1.922 0c0 .103.028.196.058.289h-3.681c.029-.093.059-.186.059-.289a.962.962 0 0 0-1.923 0c0 .103.028.196.058.289h-3.68a.93.93 0 0 0 .059-.289.96.96 0 1 0-1.923 0c0 .103.028.196.058.289H3.375A2.752 2.752 0 0 0 .625 4v26a2.751 2.751 0 0 0 2.75 2.75H26.27l5.855-5.855V4a2.752 2.752 0 0 0-2.75-2.75zm1.25 25.023l-.311.311h-2.355c-1.102 0-2 .9-2 2v2.355l-.311.311H3.375c-.689 0-1.25-.561-1.25-1.25V5h28.5v21.273z"/><path d="M23.064 15.562l-1.876-1.876-5.813 5.814-2.814-2.814-1.875 1.875 4.689 4.689z"/><path d="M16.376 28.229c5.433 0 9.853-4.42 9.853-9.854 0-5.434-4.42-9.854-9.853-9.854-5.434 0-9.854 4.42-9.854 9.854 0 5.434 4.42 9.854 9.854 9.854zm0-18.192c4.597 0 8.337 3.741 8.337 8.338 0 4.598-3.74 8.338-8.337 8.338-4.598 0-8.339-3.74-8.339-8.338 0-4.597 3.741-8.338 8.339-8.338z"/></svg>