<svg xmlns="http://www.w3.org/2000/svg" viewBox="0 0 512 512"><path d="M510.089 386.605c-8.387-44.24-47.44-81.939-97.794-84.463-16.411-.81-35.121-9.83-48.832-23.541l-33.891-33.881 93.013-91.893 10.68 10.67c7.368 7.393 19.905 5.166 24.261-4.4l53.032-116.674a14.994 14.994 0 0 0-3.05-16.811l-21.21-21.221a15.01 15.01 0 0 0-16.811-3.05L352.803 54.383c-9.461 4.288-11.836 16.804-4.4 24.261l10.54 10.54-93.013 91.893-33.621-33.611c-13.911-13.911-21.851-30.211-22.361-45.882-.86-26.751-11.77-51.902-30.691-70.833-31.191-31.19-79.103-39.33-119.225-20.25a15.005 15.005 0 0 0-4.17 24.15l34.141 34.141v21.211h-21.21l-34.141-34.14c-3.44-3.44-8.35-5-13.151-4.17-4.81.83-8.91 3.94-11 8.34-22.521 47.352-7.19 103.094 36.431 132.535 15.761 10.64 34.421 16.661 53.952 17.401 13.911.54 27.811 6.23 39.841 16.161-4.452 11.407-4.119 24.498 1.35 35.871L13.141 392.816c-17.501 17.551-17.491 46.062.04 63.592l42.432 42.432c17.518 17.518 46.045 17.577 63.642 0 .02-.03.05-.05.07-.08L248.19 368.025c11.216 5.345 24.269 5.744 35.701 1.26 10.71 12.91 17.551 28.821 18.251 43.012 2.541 50.395 40.247 89.411 84.463 97.794 35.118 6.605 70.308-4.465 94.664-28.821 24.61-24.622 35.38-60.003 28.82-94.665zM472.438 32.962l6.51 6.51-39.781 87.503-54.242-54.242 87.513-39.771zM102.034 179.988c-13.941-.53-27.191-4.78-38.321-12.29-24.711-16.681-36.751-45.132-32.711-73.053l20.971 20.971c2.81 2.81 6.63 4.39 10.6 4.39h42.432c8.28 0 15.001-6.72 15.001-15.001V62.573c0-3.97-1.58-7.79-4.39-10.6L94.674 31.032c22.921-3.27 46.562 4.13 63.362 20.941 13.521 13.521 21.311 31.481 21.931 50.582.76 23.321 11.81 46.802 31.131 66.122l33.481 33.481-19.431 19.201-10.67-10.67c-14.912-14.912-37.248-16.944-54.132-7.27-17.21-14.391-37.591-22.631-58.312-23.431zm-4.03 297.671c-5.85 5.82-15.341 5.8-21.181-.03l-42.432-42.432c-5.85-5.85-5.85-15.361 0-21.211l.08-.08 127.045-128.895 63.642 63.642L98.004 477.659zm180.117-139.685c-5.847 5.847-15.343 5.868-21.211 0l-84.863-84.863c-5.883-5.883-5.834-15.378 0-21.211 5.85-5.851 15.364-5.857 21.221 0l84.853 84.853c5.85 5.85 5.85 15.37 0 21.221zm-10.541-74.193l-21.211-21.211 133.795-132.175 21.211 21.221L267.58 263.781zm192.467 196.267c-17.851 17.861-42.582 25.351-67.853 20.561-31.27-5.93-58.239-33.486-60.092-69.783-1.02-20.921-10.4-43.172-25.491-61.162 3.84-6.72 5.9-14.351 5.9-22.301 0-12.02-4.68-23.321-13.18-31.821l-10.54-10.54 19.441-19.201 34.011 34.021c19.051 19.041 44.682 31.111 68.583 32.281 36.211 1.852 63.848 28.751 69.783 60.092 4.789 25.272-2.701 50.002-20.562 67.853z"/><path d="M407.015 362.014c-24.811 0-45.002 20.191-45.002 45.002 0 24.811 20.191 45.002 45.002 45.002s45.002-20.191 45.002-45.002c0-24.811-20.191-45.002-45.002-45.002zm0 60.003c-8.27 0-15.001-6.73-15.001-15.001 0-8.27 6.73-15.001 15.001-15.001s15.001 6.73 15.001 15.001c0 8.27-6.73 15.001-15.001 15.001z"/></svg>