<svg xmlns="http://www.w3.org/2000/svg" viewBox="0 0 511.999 511.999"><path d="M466.427 378.916l-74.236-74.226c-17.583-17.583-46.041-17.587-63.628 0l-21.206 21.206a45.04 45.04 0 0 1-14.587 9.778c-15.945 6.596-35.508 3.754-49.04-9.778l-57.629-57.629c-17.583-17.583-17.587-46.041 0-63.628l21.206-21.206c17.622-17.622 17.55-46.078 0-63.628l-74.225-74.236c-17.583-17.583-46.042-17.586-63.628 0L48.239 66.777v.01c-64.317 64.317-64.317 168.977 0 233.294l163.678 163.678c64.351 64.331 168.964 64.31 233.294 0h.01l21.206-21.216c17.66-17.66 17.512-46.114 0-63.627zM90.661 66.777c5.846-5.846 15.339-5.867 21.206 0l74.235 74.235c5.846 5.846 5.867 15.339 0 21.206l-10.608 10.608-95.442-95.441 10.609-10.608zm142.462 375.767L69.455 278.876c-49.04-49.04-52.38-126.745-10.018-179.685l95.911 95.901c-19.142 28.831-16.344 68.509 9.548 94.382l57.629 57.629c25.853 25.871 65.526 28.706 94.382 9.548l95.901 95.911c-52.939 42.361-130.644 39.022-179.685-10.018zm212.099-21.206l-10.608 10.608-95.441-95.441 10.608-10.608c5.87-5.87 15.363-5.843 21.206 0l74.235 74.235c5.87 5.87 5.843 15.362 0 21.206zM257.049 0c-8.282 0-14.997 6.715-14.997 14.997s6.715 14.997 14.997 14.997c124.041 0 224.956 100.915 224.956 224.956 0 8.282 6.715 14.997 14.997 14.997s14.997-6.715 14.997-14.997C511.999 114.038 397.971 0 257.049 0z"/><path d="M257.049 59.988c-8.282 0-14.997 6.715-14.997 14.997s6.715 14.997 14.997 14.997c90.963 0 164.968 74.005 164.968 164.968 0 8.282 6.714 14.997 14.997 14.997 8.282 0 14.997-6.715 14.997-14.997 0-107.502-87.46-194.962-194.962-194.962z"/><path d="M257.049 119.977c-8.282 0-14.997 6.715-14.997 14.997s6.715 14.997 14.997 14.997c57.886 0 104.979 47.094 104.979 104.979 0 8.282 6.715 14.997 14.997 14.997s14.997-6.715 14.997-14.997c0-74.424-60.549-134.973-134.973-134.973z"/></svg>