<svg xmlns="http://www.w3.org/2000/svg" viewBox="0 0 512 512"><path d="M420.134 381.887c-20.637 0-37.426 16.79-37.426 37.426s16.789 37.426 37.426 37.426 37.426-16.79 37.426-37.426-16.789-37.426-37.426-37.426zm0 54.437c-9.381 0-17.012-7.631-17.012-17.012s7.631-17.012 17.012-17.012 17.012 7.631 17.012 17.012-7.631 17.012-17.012 17.012zM93.509 55.262c-20.637 0-37.426 16.79-37.426 37.426s16.789 37.426 37.426 37.426 37.426-16.79 37.426-37.426-16.789-37.426-37.426-37.426zm0 54.437c-9.381 0-17.012-7.631-17.012-17.012s7.631-17.012 17.012-17.012 17.012 7.631 17.012 17.012-7.631 17.012-17.012 17.012z"/><path d="M420.134 327.449c-11.384 0-22.412 2.035-32.875 6.059L309.75 256l77.512-77.511c10.464 4.024 21.492 6.06 32.873 6.06h.003c24.535 0 47.604-9.557 64.955-26.906 17.351-17.351 26.906-40.419 26.907-64.956 0-13.854-3.016-27.181-8.963-39.609a10.21 10.21 0 0 0-7.484-5.655 10.214 10.214 0 0 0-8.94 2.843l-47.231 47.231-24.059-24.057 47.231-47.23a10.209 10.209 0 0 0-2.812-16.425C447.315 3.839 433.99.825 420.135.825c-50.654 0-91.863 41.209-91.863 91.863 0 11.383 2.036 22.411 6.06 32.875l-77.51 77.51-77.51-77.51c4.026-10.464 6.06-21.491 6.06-32.875 0-50.654-41.209-91.863-91.863-91.863S1.647 42.033 1.647 92.687 42.856 184.55 93.51 184.55c11.384 0 22.412-2.035 32.875-6.059l77.508 77.511-77.497 77.496c-10.957-4.469-22.54-6.73-34.532-6.73C41.211 326.769 0 367.978 0 418.631c0 13.854 3.016 27.181 8.962 39.609a10.21 10.21 0 0 0 16.425 2.812l47.231-47.231 24.059 24.059-47.231 47.23a10.21 10.21 0 0 0 2.812 16.425c12.428 5.946 25.754 8.962 39.609 8.962 50.654-.001 91.863-41.212 91.863-91.865 0-10.73-1.829-21.182-5.445-31.163l78.54-78.54 77.51 77.51c-4.024 10.464-6.06 21.491-6.06 32.875 0 50.654 41.209 91.863 91.863 91.863 50.654 0 91.863-41.209 91.863-91.863-.001-50.655-41.213-91.865-91.867-91.865zM135.928 159.165a10.218 10.218 0 0 0-11.624-1.99c-9.653 4.62-20.014 6.961-30.795 6.961-39.398 0-71.449-32.053-71.449-71.449s32.052-71.449 71.449-71.449c39.398 0 71.449 32.053 71.449 71.449 0 10.781-2.342 21.142-6.961 30.795a10.207 10.207 0 0 0 1.99 11.624l82.399 82.402-24.057 24.057-82.401-82.4zm23.136 218.65a10.209 10.209 0 0 0-2.082 11.425c4.2 9.288 6.331 19.178 6.331 29.392 0 39.396-32.051 71.449-71.449 71.451-5.66 0-11.206-.646-16.594-1.928l43.057-43.057c3.986-3.988 3.986-10.449 0-14.435L79.834 392.17c-3.986-3.983-10.449-3.983-14.434 0l-43.057 43.059a71.503 71.503 0 0 1-1.93-16.597c0-39.396 32.053-71.448 71.449-71.448 11.284 0 22.099 2.574 32.147 7.646a10.207 10.207 0 0 0 11.818-1.893l217.831-217.829a10.208 10.208 0 0 0 1.99-11.624c-4.62-9.655-6.963-20.015-6.963-30.795 0-39.396 32.053-71.449 71.449-71.449 5.66 0 11.206.646 16.593 1.927L393.67 66.224c-3.986 3.988-3.986 10.449 0 14.435l38.493 38.493c3.986 3.985 10.449 3.985 14.434 0l43.057-43.059a71.536 71.536 0 0 1 1.928 16.594c-.001 19.084-7.432 37.027-20.929 50.522-13.495 13.495-31.438 20.926-50.522 20.926-10.779 0-21.139-2.344-30.794-6.963a10.211 10.211 0 0 0-11.624 1.99L159.064 377.815zm261.07 112.947c-39.398 0-71.449-32.053-71.449-71.449 0-10.781 2.342-21.142 6.961-30.795a10.206 10.206 0 0 0-1.99-11.624l-82.399-82.401 24.057-24.057 82.401 82.399a10.21 10.21 0 0 0 11.624 1.99c9.653-4.62 20.014-6.961 30.795-6.961 39.398 0 71.449 32.053 71.449 71.449s-32.051 71.449-71.449 71.449z"/></svg>